<?xml version="1.0" encoding="UTF-8"?>

<!--
Font Awesome Free 5.12.0 by @fontawesome - https://fontawesome.com
License - https://fontawesome.com/license/free (Icons: CC BY 4.0, Fonts: SIL OFL 1.1, Code: MIT License)
-->


<svg xmlns="http://www.w3.org/2000/svg" xmlns:xlink="http://www.w3.org/1999/xlink">



  
  
  <symbol id="utensils" viewBox="0 0 416 512"><path d="M207.9 15.2c.8 4.7 16.1 94.5 16.1 128.8 0 52.3-27.8 89.6-68.9 104.6L168 486.7c.7 13.7-10.2 25.3-24 25.3H80c-13.7 0-24.7-11.5-24-25.3l12.9-238.1C27.7 233.6 0 196.2 0 144 0 109.6 15.3 19.9 16.1 15.2 19.3-5.1 61.4-5.4 64 16.3v141.2c1.3 3.4 15.1 3.2 16 0 1.4-25.3 7.9-139.2 8-141.8 3.3-20.8 44.7-20.8 47.9 0 .2 2.7 6.6 116.5 8 141.8.9 3.2 14.8 3.4 16 0V16.3c2.6-21.6 44.8-21.4 48-1.1zm119.2 285.7l-15 185.1c-1.2 14 9.9 26 23.9 26h56c13.3 0 24-10.7 24-24V24c0-13.2-10.7-24-24-24-82.5 0-221.4 178.5-64.9 300.9z" /></symbol>

  
  
  <symbol id="glass-martini-alt" viewBox="0 0 512 512"><path d="M502.05 57.6C523.3 36.34 508.25 0 478.2 0H33.8C3.75 0-11.3 36.34 9.95 57.6L224 271.64V464h-56c-22.09 0-40 17.91-40 40 0 4.42 3.58 8 8 8h240c4.42 0 8-3.58 8-8 0-22.09-17.91-40-40-40h-56V271.64L502.05 57.6zM443.77 48l-48 48H116.24l-48-48h375.53z" /></symbol>

  
  
  <symbol id="crossword" viewBox="0 0 464 464"><path d="m456,128l-64,0l-56,0l0,-56l0,-64c0,-4.424 -3.58401,-8 -8,-8l-64,0c-4.41599,0 -8,3.576 -8,8l0,64l0,56l-56,0l-64,0l-64,0l-64,0c-4.416,0 -8,3.576 -8,8l0,64c0,4.424 3.584,8 8,8l56,0l0,56l0,64l0,64l0,64c0,4.42401 3.584,8 8,8l64,0c4.416,0 8,-3.57599 8,-8l0,-64l0,-64l0,-64l0,-56l56,0l56,0l0,56l0,64c0,4.42401 3.58401,8 8,8l64,0c4.41599,0 8,-3.57599 8,-8l0,-64l0,-56l56,0l64,0c4.41599,0 8,-3.576 8,-8l0,-64c0,-4.424 -3.58401,-8 -8,-8zm-392,64l-48,0l0,-48l48,0l0,48zm64,256l-48,0l0,-48l48,0l0,48zm0,-64l-48,0l0,-48l48,0l0,48zm0,-64l-48,0l0,-48l48,0l0,48zm0,-64l-48,0l0,-48l48,0l0,48zm0,-64l-48,0l0,-48l48,0l0,48zm64,0l-48,0l0,-48l48,0l0,48zm64,0l-48,0l0,-48l48,0l0,48zm64,128l-48,0l0,-48l48,0l0,48zm0,-64l-48,0l0,-48l48,0l0,48zm0,-64l-48,0l0,-48l48,0l0,48zm0,-64l-48,0l0,-48l48,0l0,48zm0,-64l-48,0l0,-48l48,0l0,48zm64,128l-48,0l0,-48l48,0l0,48zm64,0l-48,0l0,-48l48,0l0,48z" /></symbol>

  
  
  <symbol id="dragon" viewBox="0 0 640 512"><path d="M18.32 255.78L192 223.96l-91.28 68.69c-10.08 10.08-2.94 27.31 11.31 27.31h222.7c-9.44-26.4-14.73-54.47-14.73-83.38v-42.27l-119.73-87.6c-23.82-15.88-55.29-14.01-77.06 4.59L5.81 227.64c-12.38 10.33-3.45 30.42 12.51 28.14zm556.87 34.1l-100.66-50.31A47.992 47.992 0 0 1 448 196.65v-36.69h64l28.09 22.63c6 6 14.14 9.37 22.63 9.37h30.97a32 32 0 0 0 28.62-17.69l14.31-28.62a32.005 32.005 0 0 0-3.02-33.51l-74.53-99.38C553.02 4.7 543.54 0 533.47 0H296.02c-7.13 0-10.7 8.57-5.66 13.61L352 63.96 292.42 88.8c-5.9 2.95-5.9 11.36 0 14.31L352 127.96v108.62c0 72.08 36.03 139.39 96 179.38-195.59 6.81-344.56 41.01-434.1 60.91C5.78 478.67 0 485.88 0 494.2 0 504 7.95 512 17.76 512h499.08c63.29.01 119.61-47.56 122.99-110.76 2.52-47.28-22.73-90.4-64.64-111.36zM489.18 66.25l45.65 11.41c-2.75 10.91-12.47 18.89-24.13 18.26-12.96-.71-25.85-12.53-21.52-29.67z" /></symbol>




</svg>
